<svg xmlns="http://www.w3.org/2000/svg" xmlns:xlink="http://www.w3.org/1999/xlink" width="16" height="16" viewBox="0 0 16 16">
    <defs>
        <filter id="lydzsm8w4a">
            <feColorMatrix in="SourceGraphic" values="0 0 0 0 0.847059 0 0 0 0 0.098039 0 0 0 0 0.231373 0 0 0 1.000000 0"/>
        </filter>
        <filter id="axrl5jdsvb">
            <feColorMatrix in="SourceGraphic" values="0 0 0 0 0.078431 0 0 0 0 0.454902 0 0 0 0 0.898039 0 0 0 1.000000 0"/>
        </filter>
        <path id="3tx2yi8rdc" d="M6.25 0C9.7 0 12.5 2.8 12.5 6.25S9.7 12.5 6.25 12.5 0 9.7 0 6.25 2.8 0 6.25 0zm0 .962C3.33.962.962 3.33.962 6.25c0 2.92 2.368 5.288 5.288 5.288 2.92 0 5.288-2.368 5.288-5.288C11.538 3.33 9.17.962 6.25.962zm0 7.449c.332 0 .601.269.601.6 0 .333-.27.602-.601.602-.332 0-.601-.27-.601-.601 0-.332.27-.601.601-.601zm-.006-5.525l.049.002.083.01c.131.026.251.091.344.188.125.129.19.304.182.484L6.73 7.234c-.028.611-.931.611-.96 0L5.597 3.57c-.008-.177.057-.35.178-.479.122-.128.291-.202.469-.204z"/>
    </defs>
    <g fill="none" fill-rule="evenodd">
        <g>
            <g>
                <g>
                    <g filter="url(#lydzsm8w4a)" transform="translate(-283 -1201) translate(275 1143) translate(8 4) translate(0 52)">
                        <g filter="url(#axrl5jdsvb)" transform="translate(0 2)">
                            <g transform="translate(2 2)">
                                <use fill="#000" fill-rule="nonzero" xlink:href="#3tx2yi8rdc"/>
                            </g>
                        </g>
                    </g>
                </g>
            </g>
        </g>
    </g>
</svg>
